<?xml version="1.0" encoding="utf-8"?>
<!-- Generator: Adobe Illustrator 15.1.0, SVG Export Plug-In . SVG Version: 6.00 Build 0)  -->
<!DOCTYPE svg PUBLIC "-//W3C//DTD SVG 1.1//EN" "http://www.w3.org/Graphics/SVG/1.1/DTD/svg11.dtd">
<svg version="1.1" id="Ebene_1" xmlns:sketch="http://www.bohemiancoding.com/sketch/ns"
	 xmlns="http://www.w3.org/2000/svg" xmlns:xlink="http://www.w3.org/1999/xlink" x="0px" y="0px" width="422px" height="422px"
	 viewBox="-146.5 108.5 422 422" enable-background="new -146.5 108.5 422 422" xml:space="preserve">
<title>Untitled 5</title>
<desc>Created with Sketch.</desc>
<g id="Page-1" sketch:type="MSPage">
	<path id="anchor-5-icon" sketch:type="MSShapeGroup" fill="#FFFFFF" d="M152.34,383.843h41.396
		c-20,31.632-73.736,53.052-109.209,53.052v-52.821c22.466-6.896,46.215-20.909,68.931-44.067l-21.416-21.008
		c-13.17,13.426-29.94,25.492-47.515,32.914v-61.399c16.381-2.596,50.337-5.343,76.88-27.027
		c15.137-12.366,24.03-28.485,25.042-45.391c1.581-26.412-15.741-49.305-43.438-58.023c1.473,10.861,0.688,21.855-1.867,31.578
		c10.146,5.415,15.969,14.434,15.356,24.653c-1.757,29.319-42.815,39.554-71.819,43.824c2.614-40.536,39.07-47.251,39.07-89.371
		C123.754,138.028,97.225,111.5,64.5,111.5S5.246,138.028,5.246,170.754c0,44.615,39.227,46.881,39.227,97.365
		c-31.604,8.54-57.925,22.881-65.425,49.863c-9.53,34.287,18.546,68.332,65.425,71.174v47.738
		c-35.473,0-89.208-21.42-109.208-53.054h41.395L-113,328.5v104.686l22.514-31.961C-42.519,481.159,22.752,477.645,64.5,523.5
		c41.748-45.855,107.02-42.341,154.986-122.275L242,433.186V328.5L152.34,383.843L152.34,383.843z M38.172,170.754
		c0-14.518,11.811-26.329,26.328-26.329s26.328,11.812,26.328,26.329c0,14.518-11.811,26.328-26.328,26.328
		S38.172,185.271,38.172,170.754L38.172,170.754z M44.473,299.406v59.938C5.123,355.925-14.801,318.148,44.473,299.406
		L44.473,299.406z"/>
</g>
</svg>
